#!OML:ASF F:\VICON\USERDATA\INSTALL\rory3\rory3.ASF
:FULLY-SPECIFIED
:DEGREES
2925
root 0.215071 15.9099 0.0711679 -1.33096 -2.73701 -0.931072
lowerback 11.1435 -0.406408 -3.31417
upperback -2.39356 -1.31705 -3.42416
thorax -8.84562 -0.567619 -1.54083
lowerneck -18.0135 -7.21674 -10.1476
upperneck 29.2999 -13.2308 17.139
head 15.3013 -4.74932 6.39897
rclavicle 6.80837e-015 3.18055e-015
rhumerus 59.0679 13.6597 -15.4042
rradius 95.2697
rwrist -38.2026
rhand -1.83497 16.4756
rfingers 7.12502
rthumb 23.8317 -12.0661
lclavicle 6.80837e-015 3.18055e-015
lhumerus 19.2762 -36.6813 81.2217
lradius 95.278
lwrist 3.93651
lhand -35.2282 0.0742581
lfingers 7.12502
lthumb -8.36504 29.8886
rfemur -4.50162 11.2155 18.4781
rtibia 25.4784
rfoot -14.7929 -11.0253
rtoes -11.5606
lfemur -1.21035 -9.67056 -16.7965
ltibia 21.0024
lfoot -14.0139 8.7963
ltoes -12.1809
2926
root 0.215655 15.9105 0.0695025 -1.32207 -2.74159 -1.01071
lowerback 11.1521 -0.409143 -3.23074
upperback -2.40271 -1.30824 -3.40783
thorax -8.86167 -0.567096 -1.57202
lowerneck -18.0214 -7.21411 -10.1307
upperneck 29.3555 -13.2342 17.1157
head 15.3259 -4.74998 6.38897
rclavicle 1.16289e-014 1.43125e-014
rhumerus 59.0461 13.6774 -15.4108
rradius 95.2782
rwrist -38.2543
rhand -1.82029 16.6097
rfingers 7.12502
rthumb 23.8458 -11.9301
lclavicle 1.16289e-014 1.43125e-014
lhumerus 19.2552 -36.6763 81.2131
lradius 95.3108
lwrist 3.93647
lhand -35.2333 0.116739
lfingers 7.12502
lthumb -8.36996 29.9309
rfemur -4.50647 11.2344 18.5667
rtibia 25.4573
rfoot -14.767 -11.0609
rtoes -11.6464
lfemur -1.24125 -9.64004 -16.7002
ltibia 21.0367
lfoot -14.0494 8.75508
ltoes -12.0194
2927
root 0.21579 15.9117 0.0677817 -1.29493 -2.75456 -1.05102
lowerback 11.1197 -0.404385 -3.18858
upperback -2.3918 -1.29324 -3.40639
thorax -8.83157 -0.562316 -1.59692
lowerneck -18.0712 -7.21126 -10.0999
upperneck 29.3701 -13.235 17.1035
head 15.3406 -4.74509 6.37818
rclavicle 5.81445e-015 -7.95139e-015
rhumerus 59.0067 13.6353 -15.4162
rradius 95.3259
rwrist -38.3619
rhand -1.83606 16.6843
rfingers 7.12502
rthumb 23.8306 -11.8575
lclavicle 5.81445e-015 -7.95139e-015
lhumerus 19.3415 -36.6863 81.1205
lradius 95.3069
lwrist 3.96025
lhand -35.3099 0.0156256
lfingers 7.12502
lthumb -8.44382 29.8268
rfemur -4.54515 11.2565 18.6079
rtibia 25.4533
rfoot -14.7872 -11.0658
rtoes -11.6251
lfemur -1.28819 -9.62282 -16.6453
ltibia 21.0554
lfoot -14.0571 8.75148
ltoes -12.1311
2928
root 0.215951 15.9108 0.066842 -1.28508 -2.76808 -1.01234
lowerback 11.0969 -0.389868 -3.24877
upperback -2.37819 -1.28046 -3.40641
thorax -8.80231 -0.553245 -1.56527
lowerneck -18.1015 -7.21976 -10.1258
upperneck 29.3587 -13.2392 17.1163
head 15.3469 -4.74699 6.38664
rclavicle 4.87022e-015 3.02153e-014
rhumerus 58.9995 13.6054 -15.4319
rradius 95.3552
rwrist -38.4103
rhand -1.80615 16.5938
rfingers 7.12502
rthumb 23.8593 -11.9443
lclavicle 4.87022e-015 3.02153e-014
lhumerus 19.3681 -36.6715 81.098
lradius 95.3292
lwrist 3.93445
lhand -35.3376 -0.148055
lfingers 7.12502
lthumb -8.47063 29.6621
rfemur -4.56255 11.2578 18.5588
rtibia 25.4457
rfoot -14.7602 -11.0456
rtoes -11.695
lfemur -1.30931 -9.61616 -16.6876
ltibia 21.0686
lfoot -14.0721 8.75819
ltoes -12.0952
2929
root 0.216427 15.9108 0.066548 -1.29372 -2.75066 -0.973844
lowerback 11.1018 -0.391492 -3.30298
upperback -2.36755 -1.2898 -3.40263
thorax -8.79245 -0.554897 -1.52883
lowerneck -18.165 -7.22594 -10.1264
upperneck 29.4241 -13.2374 17.0646
head 15.3862 -4.74751 6.36814
rclavicle 9.24349e-015 1.59028e-014
rhumerus 59.0209 13.5883 -15.4311
rradius 95.4082
rwrist -38.4242
rhand -1.85094 16.4737
rfingers 7.12502
rthumb 23.8163 -12.07
lclavicle 9.24349e-015 1.59028e-014
lhumerus 19.3682 -36.6427 81.0937
lradius 95.3387
lwrist 3.96653
lhand -35.3491 -0.34152
lfingers 7.12502
lthumb -8.48166 29.4682
rfemur -4.54907 11.2606 18.5124
rtibia 25.4346
rfoot -14.783 -11.0042
rtoes -11.5841
lfemur -1.30427 -9.64804 -16.7341
ltibia 21.0711
lfoot -14.0322 8.75493
ltoes -11.9244
2930
root 0.217201 15.9117 0.0664714 -1.30689 -2.7164 -1.01148
lowerback 11.1138 -0.410633 -3.2643
upperback -2.35687 -1.30879 -3.38928
thorax -8.7882 -0.565757 -1.53263
lowerneck -18.17 -7.22113 -10.1193
upperneck 29.4345 -13.226 17.0432
head 15.3868 -4.74385 6.36023
rclavicle 1.43622e-014 -4.13472e-014
rhumerus 59.0501 13.5699 -15.4385
rradius 95.4332
rwrist -38.4122
rhand -1.85309 16.4535
rfingers 7.12502
rthumb 23.8143 -12.0904
lclavicle 1.43622e-014 -4.13472e-014
lhumerus 19.3597 -36.6334 81.0585
lradius 95.3876
lwrist 3.99681
lhand -35.4289 -0.329234
lfingers 7.12502
lthumb -8.55869 29.4773
rfemur -4.5033 11.2386 18.5563
rtibia 25.4192
rfoot -14.7958 -11.0248
rtoes -11.7651
lfemur -1.29473 -9.66619 -16.697
ltibia 21.0649
lfoot -14.02 8.74125
ltoes -11.9315
2931
root 0.217285 15.9118 0.0644608 -1.33348 -2.69647 -1.09145
lowerback 11.1618 -0.420982 -3.18984
upperback -2.34899 -1.31211 -3.36439
thorax -8.80817 -0.570323 -1.54709
lowerneck -18.1664 -7.21549 -10.1115
upperneck 29.4358 -13.2124 17.0221
head 15.3806 -4.73966 6.35212
rclavicle -1.5704e-014 -1.90833e-014
rhumerus 59.0486 13.5679 -15.4524
rradius 95.4385
rwrist -38.3662
rhand -1.81022 16.4585
rfingers 7.12502
rthumb 23.8554 -12.0801
lclavicle -1.5704e-014 -1.90833e-014
lhumerus 19.3646 -36.6277 81.0495
lradius 95.414
lwrist 3.97211
lhand -35.1683 -0.191524
lfingers 7.12502
lthumb -8.30722 29.6251
rfemur -4.45796 11.2509 18.6571
rtibia 25.3998
rfoot -14.7679 -11.1037
rtoes -12.0247
lfemur -1.26831 -9.68289 -16.6056
ltibia 21.0542
lfoot -14.0526 8.70297
ltoes -11.8185
2932
root 0.217096 15.9108 0.0630544 -1.33153 -2.71059 -1.09311
lowerback 11.1704 -0.408035 -3.20524
upperback -2.3552 -1.29722 -3.35716
thorax -8.81936 -0.561971 -1.53351
lowerneck -18.1423 -7.2154 -10.1509
upperneck 29.446 -13.2148 17.0561
head 15.3876 -4.74245 6.37566
rclavicle 2.6339e-015 -1.59028e-014
rhumerus 59.0219 13.5954 -15.4867
rradius 95.4438
rwrist -38.2905
rhand -1.79687 16.4765
rfingers 7.12502
rthumb 23.8682 -12.0605
lclavicle 2.6339e-015 -1.59028e-014
lhumerus 19.3696 -36.6419 81.0377
lradius 95.4277
lwrist 3.91235
lhand -34.668 -0.06333
lfingers 7.12502
lthumb -7.8243 29.7719
rfemur -4.4761 11.2805 18.6606
rtibia 25.3941
rfoot -14.7107 -11.1242
rtoes -12.0586
lfemur -1.26986 -9.63957 -16.5898
ltibia 21.0342
lfoot -14.0449 8.65008
ltoes -11.5554
2933
root 0.216968 15.9114 0.0629248 -1.33027 -2.70362 -1.05512
lowerback 11.155 -0.396162 -3.25375
upperback -2.34434 -1.28798 -3.36974
thorax -8.79804 -0.555558 -1.52128
lowerneck -18.1305 -7.22294 -10.1643
upperneck 29.4193 -13.232 17.0955
head 15.3816 -4.74788 6.39054
rclavicle -1.12313e-014 -4.6118e-014
rhumerus 59.0057 13.5832 -15.521
rradius 95.4655
rwrist -38.2753
rhand -1.78149 16.4417
rfingers 7.12502
rthumb 23.883 -12.0933
lclavicle -1.12313e-014 -4.6118e-014
lhumerus 19.4105 -36.6549 81.0253
lradius 95.3857
lwrist 3.83891
lhand -34.5755 -0.16733
lfingers 7.12502
lthumb -7.73507 29.6712
rfemur -4.4874 11.2786 18.618
rtibia 25.4031
rfoot -14.6643 -11.124
rtoes -11.8044
lfemur -1.26872 -9.62035 -16.6222
ltibia 21.0096
lfoot -14.0342 8.60416
ltoes -11.5667
2934
root 0.217361 15.9127 0.0627653 -1.27709 -2.66531 -0.975429
lowerback 11.1033 -0.405087 -3.35722
upperback -2.3602 -1.31324 -3.37774
thorax -8.78367 -0.562687 -1.46723
lowerneck -18.151 -7.21316 -10.142
upperneck 29.4419 -13.2152 17.0629
head 15.3879 -4.74028 6.37667
rclavicle 3.32964e-015 -3.65764e-014
rhumerus 59.0202 13.5957 -15.5182
rradius 95.5065
rwrist -38.3309
rhand -1.82385 16.3903
rfingers 7.12502
rthumb 23.8423 -12.15
lclavicle 3.32964e-015 -3.65764e-014
lhumerus 19.4215 -36.6208 81.0424
lradius 95.3447
lwrist 3.78352
lhand -34.6537 -0.205717
lfingers 7.12502
lthumb -7.81057 29.63
rfemur -4.55494 11.2304 18.5104
rtibia 25.4209
rfoot -14.7004 -11.0746
rtoes -11.5022
lfemur -1.32689 -9.63942 -16.7077
ltibia 20.9842
lfoot -13.9713 8.63276
ltoes -11.8792
2935
root 0.218444 15.9135 0.0613912 -1.25275 -2.63119 -0.934583
lowerback 11.0857 -0.402211 -3.3843
upperback -2.3545 -1.31365 -3.39796
thorax -8.7673 -0.562266 -1.47353
lowerneck -18.1729 -7.22062 -10.0949
upperneck 29.4377 -13.2304 17.0362
head 15.3871 -4.74306 6.35188
rclavicle -9.64106e-015 3.33958e-014
rhumerus 58.9767 13.5589 -15.5524
rradius 95.5053
rwrist -38.3733
rhand -1.83068 16.3055
rfingers 7.12502
rthumb 23.8358 -12.2357
lclavicle -9.64106e-015 3.33958e-014
lhumerus 19.4799 -36.6577 81.0068
lradius 95.3372
lwrist 3.77202
lhand -34.4874 0.0605528
lfingers 7.12502
lthumb -7.64998 29.9022
rfemur -4.58402 11.206 18.4486
rtibia 25.426
rfoot -14.7241 -11.0665
rtoes -11.4089
lfemur -1.35477 -9.63975 -16.7494
ltibia 20.9489
lfoot -13.9431 8.59942
ltoes -12.0534
2936
root 0.220005 15.9135 0.0597235 -1.2617 -2.63978 -0.935698
lowerback 11.1275 -0.374439 -3.3463
upperback -2.36149 -1.27653 -3.42753
thorax -8.80072 -0.546887 -1.53348
lowerneck -18.1207 -7.23609 -10.054
upperneck 29.398 -13.2665 17.0431
head 15.3608 -4.7563 6.33717
rclavicle 7.7526e-015 -1.43125e-014
rhumerus 58.8682 13.5449 -15.5863
rradius 95.5118
rwrist -38.4058
rhand -1.82213 16.2574
rfingers 7.12502
rthumb 23.844 -12.2827
lclavicle 7.7526e-015 -1.43125e-014
lhumerus 19.4435 -36.7174 81.0559
lradius 95.3331
lwrist 3.71364
lhand -34.25 0.0628993
lfingers 7.12502
lthumb -7.42087 29.9127
rfemur -4.58886 11.2121 18.4454
rtibia 25.4235
rfoot -14.6927 -11.1192
rtoes -11.7195
lfemur -1.34764 -9.63783 -16.7598
ltibia 20.9277
lfoot -13.9542 8.61228
ltoes -12.2609
